<?xml version="1.0" standalone="yes"?>
<svg xmlns="http://www.w3.org/2000/svg" width="1000" height="1000">
<path style="fill:#ffffff; stroke:none;" d="M0 0L0 1000L1000 1000L1000 0L0 0z"/>
<path style="fill:#392e2e; stroke:none;" d="M499 172L500 173L499 172z"/>
<path style="fill:#5f4f4e; stroke:none;" d="M487 183L488 184L487 183z"/>
<path style="fill:#d4b6b4; stroke:none;" d="M486 184L487 185L486 184z"/>
<path style="fill:#6c5a59; stroke:none;" d="M475 195L476 196L475 195z"/>
<path style="fill:#937c7a; stroke:none;" d="M521 195L522 196L521 195z"/>
<path style="fill:#9f8785; stroke:none;" d="M326 196L327 197L326 196z"/>
<path style="fill:#fce3e1; stroke:none;" d="M327 196C329.052 196.874 330.747 196.953 333 197C330.948 196.126 329.253 196.047 327 196z"/>
<path style="fill:#9f8785; stroke:none;" d="M333 196L334 197L333 196z"/>
<path style="fill:#392f2e; stroke:none;" d="M662 196L663 197L662 196z"/>
<path style="fill:#ba9f9d; stroke:none;" d="M672 196L673 197L672 196z"/>
<path style="fill:#937c7a; stroke:none;" d="M315 197L316 198L315 197z"/>
<path style="fill:#5f4f4e; stroke:none;" d="M342 197L343 198L342 197z"/>
<path style="fill:#ad9491; stroke:none;" d="M685 198L686 199L685 198z"/>
<path style="fill:#85706f; stroke:none;" d="M529 204L530 205L529 204z"/>
<path style="fill:#937c7a; stroke:none;" d="M637 204L638 205L637 204z"/>
<path style="fill:#060504; stroke:none;" d="M681 205L682 206L681 205z"/>
<path style="fill:#937c7a; stroke:none;" d="M634 206L635 207L634 206z"/>
<path style="fill:#1f1919; stroke:none;" d="M317 208L318 209L317 208z"/>
<path style="fill:#5f4f4e; stroke:none;" d="M629 210L630 211L629 210z"/>
<path style="fill:#edcecc; stroke:none;" d="M319 211L320 212L319 211z"/>
<path style="fill:#ad9491; stroke:none;" d="M628 211L629 212L628 211z"/>
<path style="fill:#e0c2c0; stroke:none;" d="M627 212L628 213L627 212z"/>
<path style="fill:#c7aba9; stroke:none;" d="M534 213L535 214L534 213z"/>
<path style="fill:#6c5a59; stroke:none;" d="M625 214L626 215L625 214z"/>
<path style="fill:#392f2e; stroke:none;" d="M372 215L373 216L372 215M673 218L674 219L673 218z"/>
<path style="fill:#937c7a; stroke:none;" d="M619 221L620 222L619 221z"/>
<path style="fill:#ad9491; stroke:none;" d="M326 222L327 223L326 222z"/>
<path style="fill:#e0c2c0; stroke:none;" d="M614 227L615 228L614 227z"/>
<path style="fill:#85706f; stroke:none;" d="M666 229L667 230L666 229z"/>
<path style="fill:#5f4f4e; stroke:none;" d="M386 232L387 233L386 232M333 233L334 234L333 233z"/>
<path style="fill:#392e2e; stroke:none;" d="M751 233L752 234L751 233z"/>
<path style="fill:#9f8785; stroke:none;" d="M608 234L609 235L608 234z"/>
<path style="fill:#d4b6b4; stroke:none;" d="M750 234L751 235L750 234z"/>
<path style="fill:#e0c2c0; stroke:none;" d="M533 237L534 238L533 237z"/>
<path style="fill:#c7aba9; stroke:none;" d="M391 238L392 239L391 238z"/>
<path style="fill:#d4b6b4; stroke:none;" d="M659 240L660 241L659 240z"/>
<path style="fill:#ad9491; stroke:none;" d="M532 241L533 242L532 241z"/>
<path style="fill:#ba9f9d; stroke:none;" d="M602 241L603 242L602 241z"/>
<path style="fill:#937c7a; stroke:none;" d="M751 243L752 244L751 243z"/>
<path style="fill:#392e2e; stroke:none;" d="M340 244L341 245L340 244z"/>
<path style="fill:#927c7a; stroke:none;" d="M398 246L399 247L398 246z"/>
<path style="fill:#937c7a; stroke:none;" d="M465 246L466 247L465 246z"/>
<path style="fill:#5f4f4e; stroke:none;" d="M738 246L739 247L738 246z"/>
<path style="fill:#e0c2c0; stroke:none;" d="M342 247L343 248L342 247z"/>
<path style="fill:#fbdfdd; stroke:none;" d="M531 247L531 252C531.83 249.97 531.83 249.03 531 247z"/>
<path style="fill:#392e2e; stroke:none;" d="M654 248L655 249L654 248z"/>
<path style="fill:#9f8785; stroke:none;" d="M593 251L594 252L593 251z"/>
<path style="fill:#1f1919; stroke:none;" d="M749 254L750 255L749 254z"/>
<path style="fill:#060504; stroke:none;" d="M532 256L533 257L532 256z"/>
<path style="fill:#e0c2c0; stroke:none;" d="M729 256L730 257L729 256z"/>
<path style="fill:#463938; stroke:none;" d="M349 258L350 259L349 258z"/>
<path style="fill:#9f8785; stroke:none;" d="M411 259L412 260L411 259z"/>
<path style="fill:#927c7a; stroke:none;" d="M748 259L749 260L748 259z"/>
<path style="fill:#c7aba9; stroke:none;" d="M645 262L646 263L645 262z"/>
<path style="fill:#2c2423; stroke:none;" d="M416 263L417 264L416 263z"/>
<path style="fill:#edcecc; stroke:none;" d="M537 265L538 266L537 265z"/>
<path style="fill:#5f4f4e; stroke:none;" d="M538 266L539 267L538 266z"/>
<path style="fill:#524443; stroke:none;" d="M577 267L578 268L577 267z"/>
<path style="fill:#e0c2c0; stroke:none;" d="M719 267L720 268L719 267z"/>
<path style="fill:#6c5a59; stroke:none;" d="M718 268L719 269L718 268z"/>
<path style="fill:#524443; stroke:none;" d="M574 269L575 270L574 269z"/>
<path style="fill:#2c2423; stroke:none;" d="M717 269L718 270L717 269z"/>
<path style="fill:#1f1919; stroke:none;" d="M716 270L717 271L716 270z"/>
<path style="fill:#130f0f; stroke:none;" d="M545 271L546 272L545 271z"/>
<path style="fill:#937c7a; stroke:none;" d="M570 271L571 272L570 271z"/>
<path style="fill:#130f0f; stroke:none;" d="M715 271L716 272L715 271z"/>
<path style="fill:#060504; stroke:none;" d="M714 272L715 273L714 272z"/>
<path style="fill:#c7aba9; stroke:none;" d="M436 273L437 274L436 273z"/>
<path style="fill:#927c7a; stroke:none;" d="M636 276L637 277L636 276z"/>
<path style="fill:#524443; stroke:none;" d="M362 278L363 279L362 278z"/>
<path style="fill:#6c5a59; stroke:none;" d="M706 280L707 281L706 280z"/>
<path style="fill:#060504; stroke:none;" d="M744 280L745 281L744 280z"/>
<path style="fill:#c7aba9; stroke:none;" d="M364 281L365 282L364 281z"/>
<path style="fill:#e0c2c0; stroke:none;" d="M705 281L706 282L705 281z"/>
<path style="fill:#392f2e; stroke:none;" d="M696 289L697 290L696 289z"/>
<path style="fill:#130f0f; stroke:none;" d="M626 290L627 291L626 290z"/>
<path style="fill:#927c7a; stroke:none;" d="M625 291L626 292L625 291z"/>
<path style="fill:#463938; stroke:none;" d="M624 292L625 293L624 292z"/>
<path style="fill:#1f1919; stroke:none;" d="M623 293L624 294L623 293z"/>
<path style="fill:#9f8785; stroke:none;" d="M376 295L377 296L376 295z"/>
<path style="fill:#6c5a59; stroke:none;" d="M686 297L687 298L686 297z"/>
<path style="fill:#5f4f4e; stroke:none;" d="M398 305L399 306L398 305z"/>
<path style="fill:#ad9491; stroke:none;" d="M598 305L599 306L598 305z"/>
<path style="fill:#937c7a; stroke:none;" d="M406 306L407 307L406 306z"/>
<path style="fill:#9f8785; stroke:none;" d="M590 306L591 307L590 306z"/>
<path style="fill:#edcecc; stroke:none;" d="M737 314L738 315L737 314z"/>
<path style="fill:#ba9f9d; stroke:none;" d="M736 319L737 320L736 319z"/>
<path style="fill:#2c2423; stroke:none;" d="M623 323L624 324L623 323z"/>
<path style="fill:#9f8785; stroke:none;" d="M611 324L612 325L611 324z"/>
<path style="fill:#927c7a; stroke:none;" d="M735 324L736 325L735 324z"/>
<path style="fill:#ad9491; stroke:none;" d="M360.667 325.333C360.222 325.778 361.278 325.722 361.333 325.667C361.778 325.222 360.722 325.278 360.667 325.333z"/>
<path style="fill:#fce3e1; stroke:none;" d="M433 325C436.697 326.552 441.017 326 445 326C441.303 324.448 436.983 325 433 325z"/>
<path style="fill:#ad9491; stroke:none;" d="M445 325C446.248 325.685 446.548 325.749 448 326C446.752 325.315 446.452 325.251 445 325z"/>
<path style="fill:#392f2e; stroke:none;" d="M448 325L449 326L448 325z"/>
<path style="fill:#5f4f4e; stroke:none;" d="M554 325L555 326L554 325z"/>
<path style="fill:#ba9f9d; stroke:none;" d="M555 325L556 326L555 325z"/>
<path style="fill:#d4b6b4; stroke:none;" d="M547 326L548 327L547 326z"/>
<path style="fill:#1f1919; stroke:none;" d="M328 327L329 328L328 327z"/>
<path style="fill:#524443; stroke:none;" d="M734 329L735 330L734 329z"/>
<path style="fill:#ad9491; stroke:none;" d="M461 334L462 335L461 334z"/>
<path style="fill:#85706f; stroke:none;" d="M526 334L527 335L526 334z"/>
<path style="fill:#edcecc; stroke:none;" d="M298 335L299 336L298 335z"/>
<path style="fill:#5f4f4e; stroke:none;" d="M291 338L292 339L291 338z"/>
<path style="fill:#85706f; stroke:none;" d="M289 339L290 340L289 339z"/>
<path style="fill:#5f4f4e; stroke:none;" d="M516 339L517 340L516 339z"/>
<path style="fill:#392e2e; stroke:none;" d="M287 340L288 341L287 340z"/>
<path style="fill:#ba9f9d; stroke:none;" d="M730 342L731 343L730 342z"/>
<path style="fill:#85706f; stroke:none;" d="M280 344L281 345L280 344z"/>
<path style="fill:#ba9f9d; stroke:none;" d="M502 346L503 347L502 346z"/>
<path style="fill:#5f4f4e; stroke:none;" d="M488 350L489 351L488 350z"/>
<path style="fill:#ad9491; stroke:none;" d="M725 350L726 351L725 350z"/>
<path style="fill:#2c2423; stroke:none;" d="M269 352L270 353L269 352z"/>
<path style="fill:#d4b6b4; stroke:none;" d="M268 353L269 354L268 353z"/>
<path style="fill:#ad9491; stroke:none;" d="M716 357L717 358L716 357z"/>
<path style="fill:#c7aba9; stroke:none;" d="M711 359L712 360L711 359z"/>
<path style="fill:#ba9f9d; stroke:none;" d="M261 360L262 361L261 360z"/>
<path style="fill:#fbe1df; stroke:none;" d="M698.667 361.333C698.222 361.778 699.278 361.722 699.333 361.667C699.778 361.222 698.722 361.278 698.667 361.333z"/>
<path style="fill:#9f8785; stroke:none;" d="M700 361L701 362L700 361z"/>
<path style="fill:#392e2e; stroke:none;" d="M645 362L646 363L645 362z"/>
<path style="fill:#ba9f9d; stroke:none;" d="M644 363L645 364L644 363z"/>
<path style="fill:#ad9491; stroke:none;" d="M257 365L258 366L257 365z"/>
<path style="fill:#927c7a; stroke:none;" d="M253 371L254 372L253 371z"/>
<path style="fill:#edcecc; stroke:none;" d="M658 371L659 372L658 371z"/>
<path style="fill:#2c2423; stroke:none;" d="M660 372L661 373L660 372z"/>
<path style="fill:#937c7a; stroke:none;" d="M671 378L672 379L671 378z"/>
<path style="fill:#9f8785; stroke:none;" d="M248 381L249 382L248 381z"/>
<path style="fill:#ba9f9d; stroke:none;" d="M676 381L677 382L676 381z"/>
<path style="fill:#6c5a59; stroke:none;" d="M609 386L610 387L609 386z"/>
<path style="fill:#e0c2c0; stroke:none;" d="M595 387L596 388L595 387z"/>
<path style="fill:#ba9f9d; stroke:none;" d="M615 388L616 389L615 388z"/>
<path style="fill:#edcecc; stroke:none;" d="M591 389L592 390L591 389z"/>
<path style="fill:#5f4f4e; stroke:none;" d="M688 389L689 390L688 389z"/>
<path style="fill:#ad9491; stroke:none;" d="M245 390L246 391L245 390z"/>
<path style="fill:#796564; stroke:none;" d="M622 392L623 393L622 392z"/>
<path style="fill:#927c7a; stroke:none;" d="M692 392L693 393L692 392z"/>
<path style="fill:#524443; stroke:none;" d="M697 396L698 397L697 396z"/>
<path style="fill:#463938; stroke:none;" d="M582 398L583 399L582 398z"/>
<path style="fill:#ad9491; stroke:none;" d="M631 398L632 399L631 398z"/>
<path style="fill:#1f1919; stroke:none;" d="M243 401L244 402L243 401z"/>
<path style="fill:#937c7a; stroke:none;" d="M635 401L636 402L635 401z"/>
<path style="fill:#d4b6b4; stroke:none;" d="M357 402L358 403L357 402z"/>
<path style="fill:#6c5a59; stroke:none;" d="M358 402L359 403L358 402z"/>
<path style="fill:#5f4f4e; stroke:none;" d="M369 402L370 403L369 402z"/>
<path style="fill:#ad9491; stroke:none;" d="M370 402L371 403L370 402z"/>
<path style="fill:#2c2423; stroke:none;" d="M343 403L344 404L343 403z"/>
<path style="fill:#d4b6b4; stroke:none;" d="M387 403L388 404L387 403z"/>
<path style="fill:#2c2423; stroke:none;" d="M335 404L336 405L335 404z"/>
<path style="fill:#937c7a; stroke:none;" d="M396 404L397 405L396 404z"/>
<path style="fill:#2c2423; stroke:none;" d="M706 404C706.545 405.635 706.365 405.455 708 406C707.455 404.365 707.635 404.545 706 404z"/>
<path style="fill:#060504; stroke:none;" d="M403 405L404 406L403 405z"/>
<path style="fill:#927c7a; stroke:none;" d="M578 405L579 406L578 405z"/>
<path style="fill:#ad9491; stroke:none;" d="M324 406L325 407L324 406z"/>
<path style="fill:#796564; stroke:none;" d="M641 406L642 407L641 406z"/>
<path style="fill:#1f1919; stroke:none;" d="M708 406L709 407L708 406z"/>
<path style="fill:#c7aba9; stroke:none;" d="M320 407L321 408L320 407z"/>
<path style="fill:#1f1919; stroke:none;" d="M709 407L710 408L709 407z"/>
<path style="fill:#130f0f; stroke:none;" d="M710 408L711 409L710 408z"/>
<path style="fill:#ad9491; stroke:none;" d="M427 409L428 410L427 409M243 414L244 415L243 414z"/>
<path style="fill:#2c2423; stroke:none;" d="M457 415L458 416L457 415z"/>
<path style="fill:#85706f; stroke:none;" d="M299 416L300 417L299 416z"/>
<path style="fill:#ad9491; stroke:none;" d="M462 416L463 417L462 416z"/>
<path style="fill:#edcecc; stroke:none;" d="M570 417L571 418L570 417z"/>
<path style="fill:#524443; stroke:none;" d="M718 417L719 418L718 417M296 418L297 419L296 418z"/>
<path style="fill:#c7aba9; stroke:none;" d="M292 421L293 422L292 421z"/>
<path style="fill:#524443; stroke:none;" d="M485 421L486 422L485 421z"/>
<path style="fill:#85706f; stroke:none;" d="M566 421L567 422L566 421z"/>
<path style="fill:#5f4f4e; stroke:none;" d="M655 421L656 422L655 421z"/>
<path style="fill:#130f0f; stroke:none;" d="M494 423L495 424L494 423z"/>
<path style="fill:#524443; stroke:none;" d="M499 424L500 425L499 424z"/>
<path style="fill:#c7aba9; stroke:none;" d="M513 427L514 428L513 427M554 428L555 429L554 428z"/>
<path style="fill:#463938; stroke:none;" d="M284 429L285 430L284 429z"/>
<path style="fill:#6c5a59; stroke:none;" d="M529 430L530 431L529 430z"/>
<path style="fill:#524443; stroke:none;" d="M546 430L547 431L546 430z"/>
<path style="fill:#2c2423; stroke:none;" d="M281 433L282 434L281 433z"/>
<path style="fill:#85706f; stroke:none;" d="M730 434L731 435L730 434z"/>
<path style="fill:#463938; stroke:none;" d="M279 436L280 437L279 436z"/>
<path style="fill:#392f2e; stroke:none;" d="M253 445L254 446L253 445z"/>
<path style="fill:#796564; stroke:none;" d="M668 445L669 446L668 445z"/>
<path style="fill:#060504; stroke:none;" d="M274 446L275 447L274 446M669 448L670 449L669 448z"/>
<path style="fill:#e0c2c0; stroke:none;" d="M739 452L740 453L739 452z"/>
<path style="fill:#392e2e; stroke:none;" d="M381 456L382 457L381 456z"/>
<path style="fill:#392f2e; stroke:none;" d="M262 457L263 458L262 457z"/>
<path style="fill:#fbdcda; stroke:none;" d="M395.667 457.333C395.222 457.778 396.278 457.722 396.333 457.667C396.778 457.222 395.722 457.278 395.667 457.333z"/>
<path style="fill:#524443; stroke:none;" d="M397 457L398 458L397 457z"/>
<path style="fill:#ba9f9d; stroke:none;" d="M263 458L264 459L263 458z"/>
<path style="fill:#fbdfdd; stroke:none;" d="M409.667 458.333C409.222 458.778 410.278 458.722 410.333 458.667C410.778 458.222 409.722 458.278 409.667 458.333z"/>
<path style="fill:#796564; stroke:none;" d="M411 458L412 459L411 458z"/>
<path style="fill:#c7aba9; stroke:none;" d="M264 459L265 460L264 459z"/>
<path style="fill:#fbe1df; stroke:none;" d="M424.667 459.333C424.222 459.778 425.278 459.722 425.333 459.667C425.778 459.222 424.722 459.278 424.667 459.333z"/>
<path style="fill:#937c7a; stroke:none;" d="M426 459L427 460L426 459z"/>
<path style="fill:#2c2423; stroke:none;" d="M441 460L442 461L441 460z"/>
<path style="fill:#060504; stroke:none;" d="M742 460L743 461L742 460z"/>
<path style="fill:#fbdbd8; stroke:none;" d="M453.667 461.333C453.222 461.778 454.278 461.722 454.333 461.667C454.778 461.222 453.722 461.278 453.667 461.333z"/>
<path style="fill:#392e2e; stroke:none;" d="M455 461L456 462L455 461z"/>
<path style="fill:#2c2423; stroke:none;" d="M672 461L673 462L672 461z"/>
<path style="fill:#463938; stroke:none;" d="M467 462L468 463L467 462z"/>
<path style="fill:#392e2e; stroke:none;" d="M479 463L480 464L479 463z"/>
<path style="fill:#c7aba9; stroke:none;" d="M500 467L501 468L500 467z"/>
<path style="fill:#463938; stroke:none;" d="M503 468L504 469L503 468M390 470L391 471L390 470z"/>
<path style="fill:#ba9f9d; stroke:none;" d="M508 470L509 471L508 470z"/>
<path style="fill:#ad9491; stroke:none;" d="M673 470L674 471L673 470z"/>
<path style="fill:#392f2e; stroke:none;" d="M673 471L674 472L673 471z"/>
<path style="fill:#463938; stroke:none;" d="M402 478L403 479L402 478z"/>
<path style="fill:#937c7a; stroke:none;" d="M404 479L405 480L404 479z"/>
<path style="fill:#6c5a59; stroke:none;" d="M747 481L748 482L747 481z"/>
<path style="fill:#2c2423; stroke:none;" d="M673 483L674 484L673 483z"/>
<path style="fill:#ba9f9d; stroke:none;" d="M429 489L430 490L429 489z"/>
<path style="fill:#130f0f; stroke:none;" d="M748 489L749 490L748 489z"/>
<path style="fill:#1f1919; stroke:none;" d="M437 492L438 493L437 492z"/>
<path style="fill:#85706f; stroke:none;" d="M541 498L542 499L541 498z"/>
<path style="fill:#130f0f; stroke:none;" d="M671 499L672 500L671 499z"/>
<path style="fill:#392f2e; stroke:none;" d="M460 503L461 504L460 503z"/>
<path style="fill:#2c2423; stroke:none;" d="M546 509L547 510L546 509z"/>
<path style="fill:#fbe0de; stroke:none;" d="M748.333 511.667C748.277 511.722 748.222 512.778 748.667 512.333C748.722 512.278 748.778 511.222 748.333 511.667z"/>
<path style="fill:#937c7a; stroke:none;" d="M547 513L548 514L547 513z"/>
<path style="fill:#6c5a59; stroke:none;" d="M748 513L749 514L748 513z"/>
<path style="fill:#524443; stroke:none;" d="M472 514L473 515L472 514z"/>
<path style="fill:#796564; stroke:none;" d="M667 514L668 515L667 514z"/>
<path style="fill:#e0c2c0; stroke:none;" d="M476 520L477 521L476 520z"/>
<path style="fill:#392e2e; stroke:none;" d="M548 521L549 522L548 521z"/>
<path style="fill:#796564; stroke:none;" d="M477 522L478 523L477 522z"/>
<path style="fill:#937c7a; stroke:none;" d="M548 522L549 523L548 522z"/>
<path style="fill:#d4b6b4; stroke:none;" d="M664 522L665 523L664 522z"/>
<path style="fill:#1f1919; stroke:none;" d="M747 522L748 523L747 522z"/>
<path style="fill:#fce8e6; stroke:none;" d="M548 523L548 533C549.346 529.793 549.346 526.207 548 523z"/>
<path style="fill:#392f2e; stroke:none;" d="M480 531L481 532L480 531z"/>
<path style="fill:#c7aba9; stroke:none;" d="M548 533L549 534L548 533z"/>
<path style="fill:#392e2e; stroke:none;" d="M548 534L549 535L548 534z"/>
<path style="fill:#c7aba9; stroke:none;" d="M481 538L482 539L481 538z"/>
<path style="fill:#392e2e; stroke:none;" d="M481 539L482 540L481 539z"/>
<path style="fill:#130f0f; stroke:none;" d="M655 540L656 541L655 540M481 543L482 544L481 543z"/>
<path style="fill:#463938; stroke:none;" d="M481 544L482 545L481 544z"/>
<path style="fill:#6c5a59; stroke:none;" d="M742 544L743 545L742 544z"/>
<path style="fill:#392f2e; stroke:none;" d="M652 545L653 546L652 545z"/>
<path style="fill:#e0c2c0; stroke:none;" d="M480 552L481 553L480 552z"/>
<path style="fill:#d4b6b4; stroke:none;" d="M739 553L740 554L739 553z"/>
<path style="fill:#392f2e; stroke:none;" d="M646 554L647 555L646 554z"/>
<path style="fill:#c7aba9; stroke:none;" d="M641 561L642 562L641 561z"/>
<path style="fill:#5f4f4e; stroke:none;" d="M474 567L475 568L474 567z"/>
<path style="fill:#c7aba9; stroke:none;" d="M540 569L541 570L540 569z"/>
<path style="fill:#85706f; stroke:none;" d="M472 570L473 571L472 570z"/>
<path style="fill:#c7aba9; stroke:none;" d="M539 571L540 572L539 571z"/>
<path style="fill:#130f0f; stroke:none;" d="M633 571L634 572L633 571z"/>
<path style="fill:#ad9491; stroke:none;" d="M538 573L539 574L538 573z"/>
<path style="fill:#130f0f; stroke:none;" d="M627 578L628 579L627 578z"/>
<path style="fill:#c7aba9; stroke:none;" d="M461 581L462 582L461 581z"/>
<path style="fill:#1f1919; stroke:none;" d="M533 581L534 582L533 581z"/>
<path style="fill:#524443; stroke:none;" d="M458 583L459 584L458 583z"/>
<path style="fill:#796564; stroke:none;" d="M529 586L530 587L529 586z"/>
<path style="fill:#d4b6b4; stroke:none;" d="M446 589L447 590L446 589z"/>
<path style="fill:#edcecc; stroke:none;" d="M440 591L441 592L440 591z"/>
<path style="fill:#9f8785; stroke:none;" d="M522 593L523 594L522 593z"/>
<path style="fill:#5f4f4e; stroke:none;" d="M416 596L417 597L416 596z"/>
<path style="fill:#edcecc; stroke:none;" d="M416 598L417 599L416 598z"/>
<path style="fill:#392e2e; stroke:none;" d="M513 600L514 601L513 600z"/>
<path style="fill:#9f8785; stroke:none;" d="M423 602L424 603L423 602z"/>
<path style="fill:#524443; stroke:none;" d="M434 607L435 608L434 607z"/>
<path style="fill:#2c2423; stroke:none;" d="M498 608L499 609L498 608z"/>
<path style="fill:#392f2e; stroke:none;" d="M595 610L596 611L595 610z"/>
<path style="fill:#937c7a; stroke:none;" d="M447 611L448 612L447 611z"/>
<path style="fill:#edcecc; stroke:none;" d="M594 611L595 612L594 611z"/>
<path style="fill:#927c7a; stroke:none;" d="M485 612L486 613L485 612z"/>
<path style="fill:#2c2423; stroke:none;" d="M704 615L705 616L704 615z"/>
<path style="fill:#463938; stroke:none;" d="M586 618L587 619L586 618z"/>
<path style="fill:#6c5a59; stroke:none;" d="M697 624L698 625L697 624z"/>
<path style="fill:#392f2e; stroke:none;" d="M578 625L579 626L578 625z"/>
<path style="fill:#524443; stroke:none;" d="M693 629L694 630L693 629z"/>
<path style="fill:#463938; stroke:none;" d="M571 631L572 632L571 631z"/>
<path style="fill:#937c7a; stroke:none;" d="M564 637L565 638L564 637z"/>
<path style="fill:#ba9f9d; stroke:none;" d="M557 643L558 644L557 643z"/>
<path style="fill:#927c7a; stroke:none;" d="M681 643L682 644L681 643z"/>
<path style="fill:#ba9f9d; stroke:none;" d="M550 649L551 650L550 649z"/>
<path style="fill:#060504; stroke:none;" d="M671 654L672 655L671 654z"/>
<path style="fill:#130f0f; stroke:none;" d="M543 655L544 656L543 655z"/>
<path style="fill:#85706f; stroke:none;" d="M670 655L671 656L670 655z"/>
<path style="fill:#ad9491; stroke:none;" d="M534 663L535 664L534 663z"/>
<path style="fill:#ba9f9d; stroke:none;" d="M525 671L526 672L525 671z"/>
<path style="fill:#c7aba9; stroke:none;" d="M515 680L516 681L515 680z"/>
<path style="fill:#5f4f4e; stroke:none;" d="M504 690L505 691L504 690z"/>
<path style="fill:#060504; stroke:none;" d="M488 705L489 706L488 705z"/>
<path style="fill:#6c5a59; stroke:none;" d="M487 706L488 707L487 706z"/>
<path style="fill:#937c7a; stroke:none;" d="M486 707L487 708L486 707z"/>
<path style="fill:#9f8785; stroke:none;" d="M468 725L469 726L468 725z"/>
<path style="fill:#927c7a; stroke:none;" d="M467 726L468 727L467 726z"/>
<path style="fill:#392e2e; stroke:none;" d="M466 727L467 728L466 727z"/>
<path style="fill:#1f1919; stroke:none;" d="M465 728L466 729L465 728z"/>
<path style="fill:#e0c2c0; stroke:none;" d="M594 731L595 732L594 731z"/>
<path style="fill:#d4b6b4; stroke:none;" d="M593 732L594 733L593 732M592 733L593 734L592 733z"/>
<path style="fill:#c7aba9; stroke:none;" d="M591 734L592 735L591 734z"/>
<path style="fill:#ba9f9d; stroke:none;" d="M590 735L591 736L590 735z"/>
<path style="fill:#796564; stroke:none;" d="M458 736L459 737L458 736z"/>
<path style="fill:#ad9491; stroke:none;" d="M589 736L590 737L589 736z"/>
<path style="fill:#796564; stroke:none;" d="M588 737L589 738L588 737z"/>
<path style="fill:#5f4f4e; stroke:none;" d="M587 738L588 739L587 738z"/>
<path style="fill:#524443; stroke:none;" d="M586 739L587 740L586 739M585 740L586 741L585 740z"/>
<path style="fill:#2c2423; stroke:none;" d="M584 741L585 742L584 741z"/>
<path style="fill:#392f2e; stroke:none;" d="M583 742L584 743L583 742z"/>
<path style="fill:#392e2e; stroke:none;" d="M582 743L583 744L582 743z"/>
<path style="fill:#130f0f; stroke:none;" d="M452 744L453 745L452 744z"/>
<path style="fill:#2c2423; stroke:none;" d="M581 744L582 745L581 744z"/>
<path style="fill:#9f8785; stroke:none;" d="M446 754L447 755L446 754z"/>
<path style="fill:#ba9f9d; stroke:none;" d="M444 758L445 759L444 758z"/>
<path style="fill:#5f4f4e; stroke:none;" d="M443 760L444 761L443 760z"/>
<path style="fill:#392f2e; stroke:none;" d="M437 777L438 778L437 777z"/>
<path style="fill:#9f8785; stroke:none;" d="M435 787L436 788L435 787z"/>
<path style="fill:#130f0f; stroke:none;" d="M434 796L435 797L434 796z"/>
<path style="fill:#d4b6b4; stroke:none;" d="M434 797L435 798L434 797z"/>
<path style="fill:#392e2e; stroke:none;" d="M526 799L523 803C524.756 801.623 525.54 801.106 526 799z"/>
<path style="fill:#392f2e; stroke:none;" d="M522 803L523 804L522 803z"/>
<path style="fill:#060504; stroke:none;" d="M521 804L522 805L521 804z"/>
<path style="fill:#392f2e; stroke:none;" d="M520 805L521 806L520 805z"/>
<path style="fill:#fbdbd8; stroke:none;" d="M434 806L434 810C434.71 808.24 434.71 807.76 434 806z"/>
<path style="fill:#392f2e; stroke:none;" d="M519 806L520 807L519 806M518 807L519 808L518 807z"/>
<path style="fill:#463938; stroke:none;" d="M517 808L518 809L517 808z"/>
<path style="fill:#d4b6b4; stroke:none;" d="M516 809L517 810L516 809z"/>
<path style="fill:#85706f; stroke:none;" d="M434 810L435 811L434 810z"/>
<path style="fill:#796564; stroke:none;" d="M512 814L513 815L512 814z"/>
<path style="fill:#ad9491; stroke:none;" d="M435 818L436 819L435 818z"/>
<path style="fill:#edcecc; stroke:none;" d="M502 829L503 830L502 829z"/>
<path style="fill:#e0c2c0; stroke:none;" d="M440 834L441 835L440 834z"/>
<path style="fill:#9f8785; stroke:none;" d="M493 852L494 853L493 852z"/>
<path style="fill:#130f0f; stroke:none;" d="M453 854L454 855L453 854z"/>
<path style="fill:#463938; stroke:none;" d="M454 855L455 856L454 855z"/>
<path style="fill:#d4b6b4; stroke:none;" d="M455 856L456 857L455 856z"/>
<path style="fill:#ba9f9d; stroke:none;" d="M493 858L494 859L493 858z"/>
<path style="fill:#060504; stroke:none;" d="M458 859L459 860L458 859z"/>
<path style="fill:#1f1919; stroke:none;" d="M494 863L495 864L494 863z"/>
<path style="fill:#060504; stroke:none;" d="M467 866L468 867L467 866z"/>
<path style="fill:#2c2423; stroke:none;" d="M486 874L487 875L486 874z"/>
</svg>
